<?xml version="1.0" encoding="iso-8859-1"?>
<!-- Uploaded to: SVG Repo, www.svgrepo.com, Generator: SVG Repo Mixer Tools -->
<svg height="800px" width="800px" version="1.1" id="Layer_1" xmlns="http://www.w3.org/2000/svg" xmlns:xlink="http://www.w3.org/1999/xlink" 
	 viewBox="0 0 297 297" xml:space="preserve">
<g>
	<g id="XMLID_20_">
		<g>
			<path style="fill:#3498DB;" d="M187.54,64.103v19.73l-17.25-11.5c-3.03-2.03-6.93-2.21-10.14-0.49
				c-3.22,1.72-5.22,5.07-5.22,8.71v76.1c0,3.55-2.88,6.43-6.43,6.43c-3.54,0-6.42-2.88-6.42-6.43v-76.1c0-3.64-2.01-6.99-5.22-8.71
				c-1.46-0.79-3.07-1.17-4.66-1.17c-1.92,0-3.83,0.56-5.49,1.66l-17.25,11.5v-19.73l39.04-26.03L187.54,64.103z"/>
			<path style="fill:#99ABD5;" d="M254.5,215.462c12.54,0,22.74,10.2,22.74,22.73c0,12.54-10.2,22.74-22.74,22.74h-212
				c-12.53,0-22.73-10.2-22.73-22.74c0-12.53,10.2-22.73,22.73-22.73H254.5z M256.23,238.193c0-2.6-1.05-5.15-2.9-6.98
				c-1.83-1.84-4.37-2.9-6.98-2.9c-2.6,0-5.15,1.06-6.99,2.9c-1.84,1.83-2.9,4.38-2.9,6.98c0,2.6,1.06,5.15,2.9,6.99
				c1.84,1.84,4.39,2.9,6.99,2.9c2.61,0,5.15-1.06,6.98-2.9C255.18,243.342,256.23,240.792,256.23,238.193z M223.61,238.193
				c0-2.6-1.04-5.15-2.89-6.98c-1.84-1.84-4.39-2.9-6.99-2.9s-5.15,1.06-6.99,2.9c-1.84,1.83-2.89,4.38-2.89,6.98
				c0,2.6,1.05,5.15,2.89,6.99c1.84,1.84,4.39,2.9,6.99,2.9s5.15-1.06,6.99-2.9C222.57,243.342,223.61,240.792,223.61,238.193z"/>
			<path d="M254.5,195.693c23.44,0,42.5,19.07,42.5,42.5c0,23.44-19.06,42.5-42.5,42.5h-212c-23.43,0-42.5-19.06-42.5-42.5
				c0-23.43,19.07-42.5,42.5-42.5H254.5z M277.24,238.193c0-12.53-10.2-22.73-22.74-22.73h-212c-12.53,0-22.73,10.2-22.73,22.73
				c0,12.54,10.2,22.74,22.73,22.74h212C267.04,260.932,277.24,250.732,277.24,238.193z"/>
			<path d="M253.33,231.212c1.85,1.83,2.9,4.38,2.9,6.98c0,2.6-1.05,5.15-2.9,6.99c-1.83,1.84-4.37,2.9-6.98,2.9
				c-2.6,0-5.15-1.06-6.99-2.9c-1.84-1.84-2.9-4.39-2.9-6.99s1.06-5.15,2.9-6.98c1.84-1.84,4.39-2.9,6.99-2.9
				C248.96,228.313,251.5,229.372,253.33,231.212z"/>
			<path d="M220.72,231.212c1.85,1.83,2.89,4.38,2.89,6.98c0,2.6-1.04,5.15-2.89,6.99c-1.84,1.84-4.39,2.9-6.99,2.9
				s-5.15-1.06-6.99-2.9c-1.84-1.84-2.89-4.39-2.89-6.99s1.05-5.15,2.89-6.98c1.84-1.84,4.39-2.9,6.99-2.9
				C216.33,228.313,218.88,229.372,220.72,231.212z"/>
			<path d="M207.31,58.813v43.48c0,3.65-2.01,7-5.22,8.72s-7.12,1.53-10.15-0.49l-17.25-11.5v57.63c0,14.45-11.74,26.2-26.19,26.2
				c-14.44,0-26.19-11.75-26.19-26.2v-57.63l-17.25,11.5c-3.03,2.02-6.93,2.21-10.14,0.49c-3.22-1.72-5.22-5.07-5.22-8.72v-43.48
				c0-3.31,1.65-6.39,4.4-8.23l48.92-32.61c3.32-2.22,7.65-2.22,10.97,0l48.92,32.61C205.66,52.423,207.31,55.502,207.31,58.813z
				 M187.54,83.832v-19.73l-39.04-26.03l-39.04,26.03v19.73l17.25-11.5c1.66-1.1,3.57-1.66,5.49-1.66c1.59,0,3.2,0.38,4.66,1.17
				c3.21,1.72,5.22,5.07,5.22,8.71v76.1c0,3.55,2.88,6.43,6.42,6.43c3.55,0,6.43-2.88,6.43-6.43v-76.1c0-3.64,2-6.99,5.22-8.71
				c3.21-1.72,7.11-1.54,10.14,0.49L187.54,83.832z"/>
		</g>
	</g>
</g>
</svg>